# xmcd CD database file
# Copyright (C) 1997 Ti Kan
# 
# Track frame offsets:
#     150
#     17817
#     33865
#     49174
#     66162
#     87530
#     102558
#     114422
#     135180
#     148022
#     158962
#     185240
#     196452
#     213646
#     229718
# 
# Disc length: 3421 seconds
# 
# Revision: 1
# Processed by: cddbd v1.4b41PL1 Copyright (c) Steve Scherf et al.
# Submitted via: DiscPlay 4.0.4
# 
DISCID=db0d5b0f
DTITLE=Various Artist - Texas Blues Radio-KNON
DYEAR=1900
DGENRE=
TTITLE0=Going Back to Texas-Bob Kirkpatrick
TTITLE1=The Nod-Hash Brown
TTITLE2=Roll Over-U.P. Wilson
TTITLE3=Fried Spam Shuffle-Fuzzy Whitener
TTITLE4=Tribute to Freddie-Andrew Junior Boy Jones
TTITLE5=Red Haired Fort Worth Girl-Kenny Traylor
TTITLE6=Hop On-Johnny Moeller&Paul Size
TTITLE7=Blood on My Hands-Holland K. Smith
TTITLE8=Charley's Shuffle, or 10-11 Boogie-Cold Blue Steel
TTITLE9=Wretched Day-Josh Allen
TTITLE10=Coffee Grindin' Mama-Texas Slim Blues Band
TTITLE11=Enki Blue-Arvel Stricklin
TTITLE12=Elmo Stomp-Henry Qualls
TTITLE13=Dallas City Police-Shawn Pittman
TTITLE14=Nosey Woman-Big Al Dupree
EXTD=
EXTT0=
EXTT1=
EXTT2=
EXTT3=
EXTT4=
EXTT5=
EXTT6=
EXTT7=
EXTT8=
EXTT9=
EXTT10=
EXTT11=
EXTT12=
EXTT13=
EXTT14=
PLAYORDER=
